<svg width="21" height="17" fill="none" xmlns="http://www.w3.org/2000/svg"><path d="M20.918 2.012a8.58 8.58 0 0 1-2.464.676A4.305 4.305 0 0 0 20.34.314a8.591 8.591 0 0 1-2.725 1.041 4.292 4.292 0 0 0-7.313 3.914A12.184 12.184 0 0 1 1.456.787a4.271 4.271 0 0 0-.58 2.157 4.29 4.29 0 0 0 1.908 3.572 4.276 4.276 0 0 1-1.943-.537v.054c0 2.08 1.479 3.814 3.442 4.209a4.296 4.296 0 0 1-1.938.073 4.296 4.296 0 0 0 4.009 2.98 8.61 8.61 0 0 1-5.33 1.838c-.347 0-.688-.02-1.024-.06A12.147 12.147 0 0 0 6.579 17c7.894 0 12.21-6.54 12.21-12.21 0-.187-.004-.372-.012-.556a8.719 8.719 0 0 0 2.141-2.222Z" fill="#fff"/></svg>